# xmcd
#
# Track frame offsets:
#	150
#	16067
#	31217
#	45580
#	64400
#	77617
#	91587
#	110060
#	124170
#	138940
#	155187
#	167727
#	181142
#	198320
#
# Disc length: 2822 seconds
# Revision: 0
# Processed by: cddbd v1.5.2PL0 Copyright (c) Steve Scherf et al.
# Submitted via: dBpowerAMP V12.0
#
DISCID=b10b040e
DTITLE=Alex and Albano - Bate que eu gamo
DYEAR=1900
DGENRE=Sertanejo
TTITLE0=Bate Que Eu Gamo
TTITLE1=Volta Pra Casa
TTITLE2=Anjo Do Mal
TTITLE3=Um Caipira Na Cidade
TTITLE4=A Caminho Do Sul
TTITLE5=Guarania De Saudade
TTITLE6=Não Conheço A Solidão
TTITLE7=Sonho De Aquarela
TTITLE8=Aprendi Com Voce
TTITLE9=Amor Proibido
TTITLE10=Tem Mulher Demais No Mundo
TTITLE11=Tirei O Dia Pra Chorar
TTITLE12=Nossos Segredos
TTITLE13=Rabo De Saia
EXTD=
EXTT0=
EXTT1=
EXTT2=
EXTT3=
EXTT4=
EXTT5=
EXTT6=
EXTT7=
EXTT8=
EXTT9=
EXTT10=
EXTT11=
EXTT12=
EXTT13=
PLAYORDER=
